<mxfile host="app.diagrams.net" modified="2023-11-22T07:30:01.396Z" agent="Mozilla/5.0 (Windows NT 10.0; Win64; x64) AppleWebKit/537.36 (KHTML, like Gecko) Chrome/116.0.5845.664 YaBrowser/23.9.5.664 Yowser/2.5 Safari/537.36" etag="Qtd7HvFfK_gZpSOu5WWM" version="22.1.3" type="device">
  <diagram name="Страница — 1" id="Vh1Qt34Pb2pkAlGgLSiF">
    <mxGraphModel dx="868" dy="641" grid="1" gridSize="10" guides="1" tooltips="1" connect="1" arrows="1" fold="1" page="1" pageScale="1" pageWidth="827" pageHeight="1169" math="0" shadow="0">
      <root>
        <mxCell id="0" />
        <mxCell id="1" parent="0" />
        <mxCell id="V8-ZpEamE-Y7T5HiUBy--10" value="" style="edgeStyle=orthogonalEdgeStyle;rounded=0;orthogonalLoop=1;jettySize=auto;html=1;" edge="1" parent="1" source="V8-ZpEamE-Y7T5HiUBy--1" target="V8-ZpEamE-Y7T5HiUBy--6">
          <mxGeometry relative="1" as="geometry" />
        </mxCell>
        <mxCell id="V8-ZpEamE-Y7T5HiUBy--22" value="" style="edgeStyle=orthogonalEdgeStyle;rounded=0;orthogonalLoop=1;jettySize=auto;html=1;" edge="1" parent="1" source="V8-ZpEamE-Y7T5HiUBy--1" target="V8-ZpEamE-Y7T5HiUBy--18">
          <mxGeometry relative="1" as="geometry" />
        </mxCell>
        <mxCell id="V8-ZpEamE-Y7T5HiUBy--1" value="Character" style="swimlane;fontStyle=1;align=center;verticalAlign=top;childLayout=stackLayout;horizontal=1;startSize=26;horizontalStack=0;resizeParent=1;resizeParentMax=0;resizeLast=0;collapsible=1;marginBottom=0;whiteSpace=wrap;html=1;" vertex="1" parent="1">
          <mxGeometry x="70" y="260" width="160" height="220" as="geometry" />
        </mxCell>
        <mxCell id="V8-ZpEamE-Y7T5HiUBy--2" value="- HP: integer&lt;br&gt;- SP: integer&lt;br&gt;- MP: integer" style="text;strokeColor=none;fillColor=none;align=left;verticalAlign=top;spacingLeft=4;spacingRight=4;overflow=hidden;rotatable=0;points=[[0,0.5],[1,0.5]];portConstraint=eastwest;whiteSpace=wrap;html=1;" vertex="1" parent="V8-ZpEamE-Y7T5HiUBy--1">
          <mxGeometry y="26" width="160" height="54" as="geometry" />
        </mxCell>
        <mxCell id="V8-ZpEamE-Y7T5HiUBy--3" value="" style="line;strokeWidth=1;fillColor=none;align=left;verticalAlign=middle;spacingTop=-1;spacingLeft=3;spacingRight=3;rotatable=0;labelPosition=right;points=[];portConstraint=eastwest;strokeColor=inherit;" vertex="1" parent="V8-ZpEamE-Y7T5HiUBy--1">
          <mxGeometry y="80" width="160" height="8" as="geometry" />
        </mxCell>
        <mxCell id="V8-ZpEamE-Y7T5HiUBy--4" value="+ Get_HP(): integer&lt;br&gt;+ Get_HP(): integer&lt;br&gt;+ Get_HP(): integer&lt;br&gt;+ Add_HP(): void&lt;br&gt;+ Add_HP(): void&lt;br&gt;+ Add_HP(): void&lt;br&gt;+Character_Output():void" style="text;strokeColor=none;fillColor=none;align=left;verticalAlign=top;spacingLeft=4;spacingRight=4;overflow=hidden;rotatable=0;points=[[0,0.5],[1,0.5]];portConstraint=eastwest;whiteSpace=wrap;html=1;" vertex="1" parent="V8-ZpEamE-Y7T5HiUBy--1">
          <mxGeometry y="88" width="160" height="132" as="geometry" />
        </mxCell>
        <mxCell id="V8-ZpEamE-Y7T5HiUBy--6" value="Magician" style="swimlane;fontStyle=1;align=center;verticalAlign=top;childLayout=stackLayout;horizontal=1;startSize=26;horizontalStack=0;resizeParent=1;resizeParentMax=0;resizeLast=0;collapsible=1;marginBottom=0;whiteSpace=wrap;html=1;" vertex="1" parent="1">
          <mxGeometry x="390" y="180" width="180" height="140" as="geometry" />
        </mxCell>
        <mxCell id="V8-ZpEamE-Y7T5HiUBy--7" value="- Magic_Stick_Damage: integer" style="text;strokeColor=none;fillColor=none;align=left;verticalAlign=top;spacingLeft=4;spacingRight=4;overflow=hidden;rotatable=0;points=[[0,0.5],[1,0.5]];portConstraint=eastwest;whiteSpace=wrap;html=1;" vertex="1" parent="V8-ZpEamE-Y7T5HiUBy--6">
          <mxGeometry y="26" width="180" height="34" as="geometry" />
        </mxCell>
        <mxCell id="V8-ZpEamE-Y7T5HiUBy--8" value="" style="line;strokeWidth=1;fillColor=none;align=left;verticalAlign=middle;spacingTop=-1;spacingLeft=3;spacingRight=3;rotatable=0;labelPosition=right;points=[];portConstraint=eastwest;strokeColor=inherit;" vertex="1" parent="V8-ZpEamE-Y7T5HiUBy--6">
          <mxGeometry y="60" width="180" height="8" as="geometry" />
        </mxCell>
        <mxCell id="V8-ZpEamE-Y7T5HiUBy--9" value="+ method(type): type" style="text;strokeColor=none;fillColor=none;align=left;verticalAlign=top;spacingLeft=4;spacingRight=4;overflow=hidden;rotatable=0;points=[[0,0.5],[1,0.5]];portConstraint=eastwest;whiteSpace=wrap;html=1;" vertex="1" parent="V8-ZpEamE-Y7T5HiUBy--6">
          <mxGeometry y="68" width="180" height="72" as="geometry" />
        </mxCell>
        <mxCell id="V8-ZpEamE-Y7T5HiUBy--18" value="Swordsman" style="swimlane;fontStyle=1;align=center;verticalAlign=top;childLayout=stackLayout;horizontal=1;startSize=26;horizontalStack=0;resizeParent=1;resizeParentMax=0;resizeLast=0;collapsible=1;marginBottom=0;whiteSpace=wrap;html=1;" vertex="1" parent="1">
          <mxGeometry x="390" y="470" width="160" height="220" as="geometry" />
        </mxCell>
        <mxCell id="V8-ZpEamE-Y7T5HiUBy--19" value="- HP: integer&lt;br&gt;- SP: integer&lt;br&gt;- MP: integer" style="text;strokeColor=none;fillColor=none;align=left;verticalAlign=top;spacingLeft=4;spacingRight=4;overflow=hidden;rotatable=0;points=[[0,0.5],[1,0.5]];portConstraint=eastwest;whiteSpace=wrap;html=1;" vertex="1" parent="V8-ZpEamE-Y7T5HiUBy--18">
          <mxGeometry y="26" width="160" height="54" as="geometry" />
        </mxCell>
        <mxCell id="V8-ZpEamE-Y7T5HiUBy--20" value="" style="line;strokeWidth=1;fillColor=none;align=left;verticalAlign=middle;spacingTop=-1;spacingLeft=3;spacingRight=3;rotatable=0;labelPosition=right;points=[];portConstraint=eastwest;strokeColor=inherit;" vertex="1" parent="V8-ZpEamE-Y7T5HiUBy--18">
          <mxGeometry y="80" width="160" height="8" as="geometry" />
        </mxCell>
        <mxCell id="V8-ZpEamE-Y7T5HiUBy--21" value="+ Get_HP(): integer&lt;br&gt;+ Get_HP(): integer&lt;br&gt;+ Get_HP(): integer&lt;br&gt;+ Add_HP(): void&lt;br&gt;+ Add_HP(): void&lt;br&gt;+ Add_HP(): void&lt;br&gt;+Character_Output():void" style="text;strokeColor=none;fillColor=none;align=left;verticalAlign=top;spacingLeft=4;spacingRight=4;overflow=hidden;rotatable=0;points=[[0,0.5],[1,0.5]];portConstraint=eastwest;whiteSpace=wrap;html=1;" vertex="1" parent="V8-ZpEamE-Y7T5HiUBy--18">
          <mxGeometry y="88" width="160" height="132" as="geometry" />
        </mxCell>
      </root>
    </mxGraphModel>
  </diagram>
</mxfile>
